<?xml version="1.0" encoding="UTF-8"?>
<svg id="Layer_1" data-name="Layer 1" xmlns="http://www.w3.org/2000/svg" viewBox="0 0 321 321">
  <defs>
    <style>
      .cls-1 {
        fill: #fff;
      }
    </style>
  </defs>
  <path class="cls-1" d="M107.97,83.96v-47.8c0-2.64,2.13-4.78,4.78-4.78h172.1c2.65,0,4.78,2.14,4.78,4.78v47.8c0,2.65-2.13,4.78-4.78,4.78H112.76c-2.65,0-4.78-2.13-4.78-4.78ZM280.08,40.93H117.54v38.24h162.54v-38.24ZM141.43,107.86v-9.56h-62.15c-2.64,0-4.78,2.14-4.78,4.78v47.8c0,2.65,2.14,4.78,4.78,4.78h19.13v-9.55h-14.34v-38.25h57.37ZM251.4,146.12v9.55h33.46c2.65,0,4.78-2.13,4.78-4.78v-47.8c0-2.64-2.13-4.78-4.78-4.78h-71.71v9.56h66.93v38.25h-28.68ZM93.63,174.8v-9.56h-57.37c-2.65,0-4.78,2.14-4.78,4.78v47.82c0,2.64,2.13,4.78,4.78,4.78h66.93v-9.56h-62.15v-38.25h52.59ZM260.96,213.05v9.56h23.9c2.65,0,4.78-2.14,4.78-4.78v-47.82c0-2.64-2.13-4.78-4.78-4.78h-28.68v9.56h23.9v38.25h-19.11ZM64.94,289.54h162.55v-9.56H69.72v-38.25h52.59v-9.56h-57.37c-2.64,0-4.78,2.14-4.78,4.78v47.82c0,2.64,2.14,4.78,4.78,4.78ZM206.15,242.03c-9,4.38-19.06,6.91-29.71,6.91-37.57,0-68.13-30.57-68.13-68.13s30.55-68.13,68.13-68.13,68.12,30.57,68.12,68.13c0,13.86-4.17,26.76-11.32,37.53l37.12,41.14c3.08,3.43,4.61,7.75,4.59,12.05,0,4.92-1.99,9.83-5.93,13.4-7.37,6.62-18.78,6.02-25.43-1.34l-37.43-41.56ZM176.44,122.26c-32.3,0-58.56,26.28-58.56,58.56s26.26,58.56,58.56,58.56,58.56-26.28,58.56-58.56-26.28-58.56-58.56-58.56ZM262.62,277.81c3.45-3.11,3.73-8.46.62-11.93l-35.97-39.87c-3.74,4.21-7.95,7.99-12.62,11.17l36.04,40.01c3.12,3.45,8.47,3.73,11.93.62ZM128.58,180.82c0-26.39,21.47-47.85,47.86-47.85s47.85,21.46,47.85,47.85-21.47,47.86-47.85,47.86-47.86-21.47-47.86-47.86ZM214.73,180.82c0-21.12-17.18-38.29-38.29-38.29s-38.3,17.17-38.3,38.29,17.18,38.3,38.3,38.3,38.29-17.18,38.29-38.3Z" pointer-events="all"/>
</svg>